<svg xmlns="http://www.w3.org/2000/svg" width="900" height="500">
<rect width="100%" height="100%" fill="white"/>
<line x1="50" y1="450" x2="850" y2="450" stroke="black"/>
<line x1="50" y1="50" x2="50" y2="450" stroke="black"/>
<rect x="50.00" y="450.00" width="9.00" height="0.00" fill="#1f77b4"/><rect x="60.00" y="450.00" width="9.00" height="0.00" fill="#1f77b4"/><rect x="70.00" y="450.00" width="9.00" height="0.00" fill="#1f77b4"/><rect x="80.00" y="450.00" width="9.00" height="0.00" fill="#1f77b4"/><rect x="90.00" y="450.00" width="9.00" height="0.00" fill="#1f77b4"/><rect x="100.00" y="450.00" width="9.00" height="0.00" fill="#1f77b4"/><rect x="110.00" y="450.00" width="9.00" height="0.00" fill="#1f77b4"/><rect x="120.00" y="450.00" width="9.00" height="0.00" fill="#1f77b4"/><rect x="130.00" y="449.98" width="9.00" height="0.02" fill="#1f77b4"/><rect x="140.00" y="450.00" width="9.00" height="0.00" fill="#1f77b4"/><rect x="150.00" y="449.98" width="9.00" height="0.02" fill="#1f77b4"/><rect x="160.00" y="449.99" width="9.00" height="0.01" fill="#1f77b4"/><rect x="170.00" y="449.98" width="9.00" height="0.02" fill="#1f77b4"/><rect x="180.00" y="449.99" width="9.00" height="0.01" fill="#1f77b4"/><rect x="190.00" y="449.97" width="9.00" height="0.03" fill="#1f77b4"/><rect x="200.00" y="449.97" width="9.00" height="0.03" fill="#1f77b4"/><rect x="210.00" y="449.97" width="9.00" height="0.03" fill="#1f77b4"/><rect x="220.00" y="449.98" width="9.00" height="0.02" fill="#1f77b4"/><rect x="230.00" y="449.99" width="9.00" height="0.01" fill="#1f77b4"/><rect x="240.00" y="449.97" width="9.00" height="0.03" fill="#1f77b4"/><rect x="250.00" y="449.97" width="9.00" height="0.03" fill="#1f77b4"/><rect x="260.00" y="449.96" width="9.00" height="0.04" fill="#1f77b4"/><rect x="270.00" y="449.98" width="9.00" height="0.02" fill="#1f77b4"/><rect x="280.00" y="449.97" width="9.00" height="0.03" fill="#1f77b4"/><rect x="290.00" y="449.95" width="9.00" height="0.05" fill="#1f77b4"/><rect x="300.00" y="449.97" width="9.00" height="0.03" fill="#1f77b4"/><rect x="310.00" y="449.96" width="9.00" height="0.04" fill="#1f77b4"/><rect x="320.00" y="449.95" width="9.00" height="0.05" fill="#1f77b4"/><rect x="330.00" y="449.96" width="9.00" height="0.04" fill="#1f77b4"/><rect x="340.00" y="449.95" width="9.00" height="0.05" fill="#1f77b4"/><rect x="350.00" y="449.95" width="9.00" height="0.05" fill="#1f77b4"/><rect x="360.00" y="449.95" width="9.00" height="0.05" fill="#1f77b4"/><rect x="370.00" y="449.93" width="9.00" height="0.07" fill="#1f77b4"/><rect x="380.00" y="449.92" width="9.00" height="0.08" fill="#1f77b4"/><rect x="390.00" y="449.95" width="9.00" height="0.05" fill="#1f77b4"/><rect x="400.00" y="449.92" width="9.00" height="0.08" fill="#1f77b4"/><rect x="410.00" y="449.90" width="9.00" height="0.10" fill="#1f77b4"/><rect x="420.00" y="449.87" width="9.00" height="0.13" fill="#1f77b4"/><rect x="430.00" y="449.87" width="9.00" height="0.13" fill="#1f77b4"/><rect x="440.00" y="449.84" width="9.00" height="0.16" fill="#1f77b4"/><rect x="450.00" y="449.82" width="9.00" height="0.18" fill="#1f77b4"/><rect x="460.00" y="449.80" width="9.00" height="0.20" fill="#1f77b4"/><rect x="470.00" y="449.67" width="9.00" height="0.33" fill="#1f77b4"/><rect x="480.00" y="449.54" width="9.00" height="0.46" fill="#1f77b4"/><rect x="490.00" y="449.35" width="9.00" height="0.65" fill="#1f77b4"/><rect x="500.00" y="448.07" width="9.00" height="1.93" fill="#1f77b4"/><rect x="510.00" y="433.47" width="9.00" height="16.53" fill="#1f77b4"/><rect x="520.00" y="50.00" width="9.00" height="400.00" fill="#1f77b4"/><rect x="530.00" y="386.43" width="9.00" height="63.57" fill="#1f77b4"/><rect x="540.00" y="441.74" width="9.00" height="8.26" fill="#1f77b4"/><rect x="550.00" y="448.69" width="9.00" height="1.31" fill="#1f77b4"/><rect x="560.00" y="449.60" width="9.00" height="0.40" fill="#1f77b4"/><rect x="570.00" y="449.72" width="9.00" height="0.28" fill="#1f77b4"/><rect x="580.00" y="449.82" width="9.00" height="0.18" fill="#1f77b4"/><rect x="590.00" y="449.86" width="9.00" height="0.14" fill="#1f77b4"/><rect x="600.00" y="449.96" width="9.00" height="0.04" fill="#1f77b4"/><rect x="610.00" y="449.93" width="9.00" height="0.07" fill="#1f77b4"/><rect x="620.00" y="449.92" width="9.00" height="0.08" fill="#1f77b4"/><rect x="630.00" y="449.91" width="9.00" height="0.09" fill="#1f77b4"/><rect x="640.00" y="449.94" width="9.00" height="0.06" fill="#1f77b4"/><rect x="650.00" y="449.94" width="9.00" height="0.06" fill="#1f77b4"/><rect x="660.00" y="449.96" width="9.00" height="0.04" fill="#1f77b4"/><rect x="670.00" y="449.97" width="9.00" height="0.03" fill="#1f77b4"/><rect x="680.00" y="449.99" width="9.00" height="0.01" fill="#1f77b4"/><rect x="690.00" y="449.98" width="9.00" height="0.02" fill="#1f77b4"/><rect x="700.00" y="449.99" width="9.00" height="0.01" fill="#1f77b4"/><rect x="710.00" y="449.99" width="9.00" height="0.01" fill="#1f77b4"/><rect x="720.00" y="450.00" width="9.00" height="0.00" fill="#1f77b4"/><rect x="730.00" y="450.00" width="9.00" height="0.00" fill="#1f77b4"/><rect x="740.00" y="449.99" width="9.00" height="0.01" fill="#1f77b4"/><rect x="750.00" y="450.00" width="9.00" height="0.00" fill="#1f77b4"/><rect x="760.00" y="450.00" width="9.00" height="0.00" fill="#1f77b4"/><rect x="770.00" y="450.00" width="9.00" height="0.00" fill="#1f77b4"/><rect x="780.00" y="450.00" width="9.00" height="0.00" fill="#1f77b4"/><rect x="790.00" y="450.00" width="9.00" height="0.00" fill="#1f77b4"/><rect x="800.00" y="450.00" width="9.00" height="0.00" fill="#1f77b4"/><rect x="810.00" y="450.00" width="9.00" height="0.00" fill="#1f77b4"/><rect x="820.00" y="450.00" width="9.00" height="0.00" fill="#1f77b4"/><rect x="830.00" y="450.00" width="9.00" height="0.00" fill="#1f77b4"/><rect x="840.00" y="450.00" width="9.00" height="0.00" fill="#1f77b4"/>
<text x="450.0" y="30" text-anchor="middle" font-size="18">Residual ratio distribution</text>
<text x="450.0" y="490" text-anchor="middle" font-size="14">(reco-target)/target</text>
<text x="20" y="250.0" transform="rotate(-90,20,250.0)" text-anchor="middle" font-size="14">Count</text>
</svg>